HIERARCHY
ROOT Hips
{
	OFFSET 0.000000 0.000000 0.000000
	CHANNELS 6 Xposition Yposition Zposition Zrotation Yrotation Xrotation 
	JOINT LHipJoint
	{
		OFFSET 0.000000 0.000000 0.000000
		CHANNELS 3 Zrotation Yrotation Xrotation
		JOINT LeftUpLeg
		{
			OFFSET 1.363060 -1.794630 0.839290
			CHANNELS 3 Zrotation Yrotation Xrotation
			JOINT LeftLeg
			{
				OFFSET 2.448110 -6.726130 0.000000
				CHANNELS 3 Zrotation Yrotation Xrotation
				JOINT LeftFoot
				{
					OFFSET 2.562200 -7.039590 0.000000
					CHANNELS 3 Zrotation Yrotation Xrotation
					JOINT LeftToeBase
					{
						OFFSET 0.157640 -0.433110 2.322550
						CHANNELS 3 Zrotation Yrotation Xrotation
						End Site
						{
							OFFSET 0.000000 0.000000 0.000000
						}
					}
				}
			}
		}
	}
	JOINT RHipJoint
	{
		OFFSET 0.000000 0.000000 0.000000
		CHANNELS 3 Zrotation Yrotation Xrotation
		JOINT RightUpLeg
		{
			OFFSET -1.305520 -1.794630 0.839290
			CHANNELS 3 Zrotation Yrotation Xrotation
			JOINT RightLeg
			{
				OFFSET -2.542530 -6.985550 0.000000
				CHANNELS 3 Zrotation Yrotation Xrotation
				JOINT RightFoot
				{
					OFFSET -2.568260 -7.056230 0.000000
					CHANNELS 3 Zrotation Yrotation Xrotation
					JOINT RightToeBase
					{
						OFFSET -0.164730 -0.452590 2.363150
						CHANNELS 3 Zrotation Yrotation Xrotation
						End Site
						{
							OFFSET 0.000000 0.000000 0.000000
						}
					}
				}
			}
		}
	}
	JOINT LowerBack
	{
		OFFSET 0.000000 0.000000 0.000000
		CHANNELS 3 Zrotation Yrotation Xrotation
		JOINT Spine
		{
			OFFSET 0.028270 2.035590 -0.193380
			CHANNELS 3 Zrotation Yrotation Xrotation
			JOINT Spine1
			{
				OFFSET 0.056720 2.048850 -0.042750
				CHANNELS 3 Zrotation Yrotation Xrotation
				JOINT Neck
				{
					OFFSET 0.000000 0.000000 0.000000
					CHANNELS 3 Zrotation Yrotation Xrotation
					JOINT Neck1
					{
						OFFSET -0.054170 1.746240 0.172020
						CHANNELS 3 Zrotation Yrotation Xrotation
						JOINT Head
						{
							OFFSET 0.104070 1.761360 -0.123970
							CHANNELS 3 Zrotation Yrotation Xrotation
							End Site
							{
								OFFSET 0.000000 0.000000 0.000000
							}
						}
					}
				}
				JOINT LeftShoulder
				{
					OFFSET 0.000000 0.000000 0.000000
					CHANNELS 3 Zrotation Yrotation Xrotation
					JOINT LeftArm
					{
						OFFSET 3.362410 1.200890 -0.311210
						CHANNELS 3 Zrotation Yrotation Xrotation
						JOINT LeftForeArm
						{
							OFFSET 4.983000 -0.000000 -0.000000
							CHANNELS 3 Zrotation Yrotation Xrotation
							JOINT LeftHand
							{
								OFFSET 3.483560 -0.000000 -0.000000
								CHANNELS 3 Zrotation Yrotation Xrotation
								JOINT LeftFingerBase
								{
									OFFSET 0.000000 0.000000 0.000000
									CHANNELS 3 Zrotation Yrotation Xrotation
									JOINT LeftHandIndex1
									{
										OFFSET 0.715260 -0.000000 -0.000000
										CHANNELS 3 Zrotation Yrotation Xrotation
										End Site
										{
											OFFSET 0.000000 0.000000 0.000000
										}
									}
								}
								JOINT LThumb
								{
									OFFSET 0.000000 0.000000 0.000000
									CHANNELS 3 Zrotation Yrotation Xrotation
									End Site
									{
										OFFSET 0.000000 0.000000 0.000000
									}
								}
							}
						}
					}
				}
				JOINT RightShoulder
				{
					OFFSET 0.000000 0.000000 0.000000
					CHANNELS 3 Zrotation Yrotation Xrotation
					JOINT RightArm
					{
						OFFSET -3.136600 1.374050 -0.404650
						CHANNELS 3 Zrotation Yrotation Xrotation
						JOINT RightForeArm
						{
							OFFSET -5.241900 -0.000000 -0.000000
							CHANNELS 3 Zrotation Yrotation Xrotation
							JOINT RightHand
							{
								OFFSET -3.444170 -0.000000 -0.000000
								CHANNELS 3 Zrotation Yrotation Xrotation
								JOINT RightFingerBase
								{
									OFFSET 0.000000 0.000000 0.000000
									CHANNELS 3 Zrotation Yrotation Xrotation
									JOINT RightHandIndex1
									{
										OFFSET -0.622530 -0.000000 -0.000000
										CHANNELS 3 Zrotation Yrotation Xrotation
										End Site
										{
											OFFSET 0.000000 0.000000 0.000000
										}
									}
								}
								JOINT RThumb
								{
									OFFSET 0.000000 0.000000 0.000000
									CHANNELS 3 Zrotation Yrotation Xrotation
									End Site
									{
										OFFSET 0.000000 0.000000 0.000000
									}
								}
							}
						}
					}
				}
			}
		}
	}
}
MOTION
Frames: 11
Frame Time: 0.008333
-2.583012 15.794520 0.013341 1.465224 81.216662 33.312226 -8.259938 -1.754173 -0.337755 -11.618957 -2.515632 -72.109218 -2.406928 3.273690 40.194021 0.424601 0.463069 -3.454286 0.284500 0.000000 -33.267100 10.593146 -0.438627 -5.610681 12.661333 -6.625466 -33.141788 0.624286 -4.367880 61.218372 0.137220 4.407822 -11.102761 -0.191500 -0.000000 -69.485000 -2.884288 0.702244 9.409659 -1.295477 0.994352 -1.261041 -5.146330 1.018460 -0.907300 9.244153 -7.108905 -6.511311 -1.139110 -0.076491 -0.111795 0.000000 0.000000 0.000000 3.939634 15.067607 2.406800 -67.388528 35.656228 23.787227 -0.518278 -80.951491 0.007555 -6.548002 2.036797 -0.115689 0.085321 0.044724 0.000000 0.000000 0.000000 0.000000 0.000000 0.000000 0.000000 2.734584 -0.423233 -0.841145 64.176708 7.250654 9.240474 179.532470 78.884374 179.976437 -3.610517 2.265042 -0.086432 0.074330 -0.445573 -0.000000 0.000000 0.000000 0.000000 0.000000 0.000000 0.000000 
-2.391610 15.749481 0.040867 0.578382 80.833971 32.183969 -8.312651 -1.824414 -0.441725 -11.174266 -2.329539 -72.252446 -2.142516 3.476700 42.531291 0.507282 0.872711 -3.557224 0.307200 -0.000001 -30.514400 10.706000 -0.444831 -5.544039 12.437079 -6.446042 -33.070694 0.311749 -4.434452 62.693410 0.146707 4.246535 -9.168942 -0.091300 0.000001 -71.273400 -3.059126 0.675507 9.400417 -1.349041 0.968294 -1.275630 -5.235623 0.994036 -0.946797 9.349975 -7.054539 -6.497962 -1.178808 -0.079747 -0.105398 0.000000 0.000000 0.000000 3.907156 14.827758 2.412701 -67.403694 35.038314 23.551175 -0.522845 -80.870766 0.007532 -6.288416 2.099568 -0.114452 0.080310 0.046506 0.000000 0.000000 0.000000 0.000000 0.000000 0.000000 0.000000 2.961944 -0.353174 -0.814445 64.752660 6.797530 9.313281 179.545564 79.321423 179.978604 -3.306408 2.408498 -0.083336 0.066063 -0.446100 0.000000 0.000000 0.000000 0.000000 0.000000 0.000000 0.000000 
-2.204091 15.707002 0.070556 -0.054307 80.453701 31.326804 -8.354447 -1.891752 -0.559935 -10.833350 -2.120144 -72.367143 -1.910765 3.664095 44.817278 0.602185 1.318133 -3.960279 0.320200 0.000001 -28.029999 10.817720 -0.433903 -5.474556 12.222225 -6.228351 -33.132990 -0.013371 -4.502924 64.286869 0.121199 3.943792 -7.195330 0.017800 -0.000000 -72.243200 -3.248695 0.641838 9.408397 -1.406387 0.935505 -1.288355 -5.327182 0.962734 -0.996376 9.453918 -6.974146 -6.473168 -1.226302 -0.083675 -0.097107 0.000000 0.000000 0.000000 3.859002 14.517900 2.424507 -67.414722 34.320609 23.236748 -0.528710 -80.752221 0.007494 -5.993615 2.195981 -0.114008 0.074517 0.048433 0.000000 0.000000 0.000000 0.000000 0.000000 0.000000 0.000000 3.223887 -0.261874 -0.780633 65.378171 6.326370 9.329763 179.562743 79.838681 179.980672 -3.010804 2.544900 -0.079342 0.057798 -0.446281 0.000000 0.000000 0.000000 0.000000 0.000000 0.000000 0.000000 
-2.020752 15.667862 0.102209 -0.476583 80.081387 30.694348 -8.386687 -1.954647 -0.689376 -10.582500 -1.897350 -72.426018 -1.712590 3.832907 46.996822 0.709778 1.806921 -4.653798 0.318300 0.000000 -26.004600 10.925358 -0.405428 -5.408007 12.028469 -5.983645 -33.318729 -0.342119 -4.572234 65.981023 0.055379 3.455579 -5.272287 0.115200 -0.000000 -72.347400 -3.444740 0.600844 9.437116 -1.465562 0.895457 -1.297589 -5.420263 0.924066 -1.053100 9.550653 -6.870352 -6.434125 -1.282036 -0.088340 -0.086198 0.000000 0.000000 0.000000 3.794244 14.142941 2.440249 -67.414953 33.491793 22.852965 -0.535993 -80.591420 0.007409 -5.659275 2.332757 -0.114359 0.067865 0.050421 0.000000 0.000000 0.000000 0.000000 0.000000 0.000000 0.000000 3.519627 -0.156223 -0.741412 66.050217 5.848804 9.290406 179.584532 80.446629 179.982611 -2.728874 2.672797 -0.074947 0.049660 -0.445969 0.000000 0.000000 0.000000 0.000000 0.000000 0.000000 0.000000 
-1.841829 15.632678 0.135418 -0.740718 79.720208 30.230032 -8.411192 -2.011881 -0.827181 -10.403926 -1.669245 -72.405626 -1.546825 3.981410 49.029824 0.830351 2.342305 -5.609606 0.294800 -0.000000 -24.544600 11.026599 -0.359684 -5.350058 11.866914 -5.725989 -33.616804 -0.666140 -4.642345 67.758012 -0.052952 2.742103 -3.495415 0.174800 0.000000 -71.594999 -3.637618 0.552751 9.489642 -1.524183 0.848196 -1.301259 -5.513379 0.878160 -1.111782 9.634442 -6.747339 -6.379514 -1.345834 -0.093742 -0.072316 0.000000 0.000000 0.000000 3.715682 13.717656 2.457897 -67.397982 32.534890 22.417968 -0.545091 -80.379406 0.007259 -5.283945 2.515307 -0.115104 0.060303 0.052386 0.000000 0.000000 0.000000 0.000000 0.000000 0.000000 0.000000 3.845994 -0.044836 -0.699363 66.764035 5.378202 9.199109 179.611485 81.158910 179.984406 -2.464809 2.791858 -0.070057 0.041760 -0.444995 0.000000 0.000000 0.000000 0.000000 0.000000 0.000000 0.000000 
-1.667309 15.601858 0.169681 -0.903634 79.370000 29.872446 -8.430224 -2.062523 -0.970239 -10.276555 -1.441740 -72.286967 -1.410800 4.108578 50.888209 0.963684 2.922928 -6.781936 0.243000 -0.000000 -23.682100 11.119762 -0.297664 -5.305652 11.747664 -5.470318 -34.015532 -0.978552 -4.713966 69.599269 -0.202966 1.774862 -1.958362 0.171100 -0.000000 -70.034400 -3.816056 0.498523 9.567699 -1.579529 0.794470 -1.297802 -5.605021 0.825848 -1.167795 9.699598 -6.610329 -6.308081 -1.417013 -0.099841 -0.055015 0.000000 0.000000 0.000000 3.622431 13.256091 2.474900 -67.357140 31.441508 21.945525 -0.556193 -80.113347 0.006999 -4.870003 2.746364 -0.115743 0.051853 0.054260 0.000000 0.000000 0.000000 0.000000 0.000000 0.000000 0.000000 4.196867 0.063194 -0.656913 67.513846 4.927262 9.061468 179.643816 81.985840 179.986028 -2.222975 2.903203 -0.065268 0.034229 -0.443238 0.000000 0.000000 0.000000 0.000000 0.000000 0.000000 0.000000 
-1.497006 15.575619 0.204428 -1.021399 79.028406 29.561958 -8.446316 -2.105963 -1.115298 -10.179149 -1.218041 -72.058552 -1.300881 4.214165 52.554926 1.108598 3.542955 -8.110428 0.157400 -0.000000 -23.391100 11.203778 -0.220969 -5.278407 11.678888 -5.230440 -34.504126 -1.274591 -4.788280 71.485508 -0.391479 0.542900 -0.743069 0.087301 0.000000 -67.742900 -3.968536 0.439755 9.671207 -1.628858 0.735659 -1.286652 -5.693792 0.768533 -1.218518 9.740652 -6.462969 -6.217894 -1.494633 -0.106598 -0.033558 0.000000 0.000000 0.000000 3.508568 12.766495 2.488370 -67.285501 30.218059 21.440889 -0.569155 -79.799875 0.006605 -4.423442 3.024988 -0.115779 0.042621 0.056002 0.000000 0.000000 0.000000 0.000000 0.000000 0.000000 0.000000 4.564305 0.161331 -0.615478 68.292466 4.503419 8.883489 179.681467 82.936706 179.987456 -2.007127 3.008535 -0.060581 0.027207 -0.440595 0.000000 0.000000 0.000000 0.000000 0.000000 0.000000 0.000000 
-1.330697 15.553968 0.239131 -1.141298 78.691337 29.248144 -8.461958 -2.142091 -1.259458 -10.092361 -0.998582 -71.715232 -1.212887 4.298614 54.022597 1.262617 4.192608 -9.525932 0.035700 0.000000 -23.600299 11.278210 -0.131382 -5.270407 11.665727 -5.018367 -35.075192 -1.551683 -4.866779 73.396540 -0.613667 -0.941716 0.090657 -0.078200 0.000000 -64.825700 -4.085986 0.377975 9.798542 -1.669729 0.673146 -1.266489 -5.777314 0.707733 -1.257103 9.754476 -6.311828 -6.111793 -1.576980 -0.113833 -0.008577 0.000000 0.000000 0.000000 3.380856 12.276252 2.496849 -67.182595 28.850115 20.923440 -0.584517 -79.432232 0.006052 -3.953763 3.347685 -0.114411 0.032704 0.057620 0.000000 0.000000 0.000000 0.000000 0.000000 0.000000 0.000000 4.939603 0.240880 -0.578032 69.090603 4.117150 8.673253 179.724255 84.018179 179.988658 -1.822909 3.110228 -0.056396 0.020853 -0.436994 0.000000 0.000000 0.000000 0.000000 0.000000 0.000000 0.000000 
-1.168014 15.536827 0.273274 -1.303896 78.354083 28.889839 -8.479553 -2.171003 -1.399709 -9.999453 -0.782006 -71.261024 -1.142364 4.363215 55.292796 1.422090 4.859730 -10.957936 -0.119900 0.000000 -24.200199 11.342801 -0.031014 -5.281614 11.710572 -4.841773 -35.723321 -1.808529 -4.950547 75.309128 -0.863169 -2.639943 0.504007 -0.307700 0.000000 -61.389900 -4.159982 0.314975 9.945667 -1.700076 0.608633 -1.238188 -5.854369 0.645122 -1.282824 9.738772 -6.159340 -5.989328 -1.662593 -0.121450 0.020350 0.000000 0.000000 0.000000 3.234325 11.790191 2.498191 -67.047442 27.357035 20.388179 -0.601870 -79.025624 0.005331 -3.473042 3.706400 -0.111142 0.022321 0.059157 0.000000 0.000000 0.000000 0.000000 0.000000 0.000000 0.000000 5.313635 0.298977 -0.544787 69.899005 3.767415 8.436166 179.771537 85.231612 179.989604 -1.676330 3.209912 -0.053113 0.015354 -0.432403 0.000000 0.000000 0.000000 0.000000 0.000000 0.000000 0.000000 
-1.008542 15.523979 0.306483 -1.536382 78.011967 28.461214 -8.500979 -2.193117 -1.533593 -9.888279 -0.565558 -70.707470 -1.085055 4.410067 56.375404 1.582278 5.529701 -12.342243 -0.303501 0.000000 -25.055500 11.397536 0.077918 -5.310051 11.812915 -4.703954 -36.446665 -2.044639 -5.040316 77.198091 -1.132096 -4.486632 0.483606 -0.565600 -0.000000 -57.542900 -4.185635 0.252100 10.107013 -1.718510 0.543485 -1.202547 -5.923407 0.582071 -1.293515 9.693904 -6.008727 -5.852886 -1.749680 -0.129282 0.052802 0.000000 0.000000 0.000000 3.072338 11.320877 2.491426 -66.884061 25.750536 19.834629 -0.621092 -78.589459 0.004440 -2.994863 4.090127 -0.105575 0.011688 0.060706 0.000000 0.000000 0.000000 0.000000 0.000000 0.000000 0.000000 5.678308 0.333047 -0.516193 70.706966 3.452846 8.177886 179.822533 86.574851 179.990266 -1.575579 3.308000 -0.051030 0.010919 -0.426812 0.000000 0.000000 0.000000 0.000000 0.000000 0.000000 0.000000 
-0.851924 15.515100 0.338564 -1.854307 77.661740 27.950102 -8.527552 -2.208994 -1.659253 -9.751775 -0.345367 -70.072324 -1.037228 4.441953 57.286976 1.738114 6.187466 -13.627370 -0.505600 0.000000 -26.025100 11.442382 0.192970 -5.352039 11.970055 -4.604043 -37.245511 -2.259616 -5.136260 79.036373 -1.410740 -6.394793 0.040209 -0.804700 0.000000 -53.385201 -4.161128 0.190191 10.275814 -1.724307 0.478655 -1.160508 -5.983006 0.519559 -1.286802 9.622568 -5.864494 -5.706746 -1.836327 -0.137127 0.087798 0.000000 0.000000 0.000000 2.903443 10.882807 2.476167 -66.700237 24.038518 19.263616 -0.642112 -78.131944 0.003406 -2.532325 4.485811 -0.097610 0.001004 0.062410 0.000000 0.000000 0.000000 0.000000 0.000000 0.000000 0.000000 6.026949 0.340238 -0.492407 71.503535 3.170762 7.904782 179.876249 88.041547 179.990557 -1.531219 3.403671 -0.050748 0.007783 -0.420237 0.000000 0.000000 0.000000 0.000000 0.000000 0.000000 0.000000 
